<svg width="166" height="144" viewBox="0 0 166 144" fill="none" xmlns="http://www.w3.org/2000/svg">
<path d="M157.782 7.50159C154.06 3.66771 149.252 1.14913 144.05 0.30916C138.848 -0.53081 133.521 0.351257 128.837 2.82812C124.154 5.30498 120.356 9.2486 117.992 14.0901C115.628 18.9316 114.819 24.4206 115.683 29.7655C116.852 37.6651 115.158 45.7311 110.923 52.4291L101.854 67.1293C108.498 70.2213 114.329 74.9015 118.861 80.7805L129 64.3468C133.17 57.4937 139.629 52.4435 147.162 50.1451C151.309 48.9044 155.071 46.573 158.075 43.3806C161.08 40.1883 163.224 36.2453 164.296 31.9405C165.368 27.6358 165.331 23.1178 164.188 18.8322C163.046 14.5466 160.838 10.6414 157.782 7.50159ZM140.197 38.3853C134.897 38.3853 130.592 32.6643 130.592 25.5946C130.592 18.5249 134.897 12.8039 140.197 12.8039C145.497 12.8039 149.803 18.5248 149.803 25.5946C149.803 32.6644 145.497 38.3853 140.197 38.3853Z" fill="#16A34A"/>
<path d="M157.782 7.50159C154.06 3.66771 149.252 1.14913 144.05 0.30916C138.848 -0.53081 133.521 0.351257 128.837 2.82812C124.154 5.30498 120.356 9.2486 117.992 14.0901C115.628 18.9316 114.819 24.4206 115.683 29.7655C116.852 37.6651 115.158 45.7311 110.923 52.4291L101.854 67.1293C108.498 70.2213 114.329 74.9015 118.861 80.7805L129 64.3468C133.17 57.4937 139.629 52.4435 147.162 50.1451C151.309 48.9044 155.071 46.573 158.075 43.3806C161.08 40.1883 163.224 36.2453 164.296 31.9405C165.368 27.6358 165.331 23.1178 164.188 18.8322C163.046 14.5466 160.838 10.6414 157.782 7.50159ZM140.197 38.3853C134.897 38.3853 130.592 32.6643 130.592 25.5946C130.592 18.5249 134.897 12.8039 140.197 12.8039C145.497 12.8039 149.803 18.5248 149.803 25.5946C149.803 32.6644 145.497 38.3853 140.197 38.3853Z" stroke="#16A34A"/>
<path d="M63.2195 67.131L54.1514 52.4325C49.9171 45.7353 48.2232 37.6702 49.3918 29.7715C50.1762 24.9073 49.5778 19.9135 47.6687 15.391C45.7595 10.8685 42.621 7.01 38.6307 4.27984C34.6404 1.54967 29.9684 0.0641525 25.1768 0.00203128C20.3853 -0.0600899 15.6784 1.30384 11.6225 3.92968C7.56664 6.55553 4.33461 10.3314 2.31534 14.803C0.296066 19.2745 -0.424408 24.2513 0.240614 29.1343C0.905636 34.0173 2.92782 38.5985 6.06383 42.3267C9.19983 46.0549 13.316 48.7712 17.9171 50.1488C25.4498 52.4469 31.9076 57.4965 36.0769 64.3487L46.2142 80.7805C50.7454 74.9022 56.5756 70.2225 63.2195 67.131ZM24.8812 38.3903C19.5819 38.3903 15.2769 32.67 15.2769 25.6011C15.2769 18.5322 19.5819 12.8119 24.8812 12.8119C30.1806 12.8119 34.4856 18.5322 34.4856 25.6011C34.4856 32.67 30.1806 38.3903 24.8812 38.3903Z" fill="#16A34A"/>
<path d="M63.2195 67.131L54.1514 52.4325C49.9171 45.7353 48.2232 37.6702 49.3918 29.7715C50.1762 24.9073 49.5778 19.9135 47.6687 15.391C45.7595 10.8685 42.621 7.01 38.6307 4.27984C34.6404 1.54967 29.9684 0.0641525 25.1768 0.00203128C20.3853 -0.0600899 15.6784 1.30384 11.6225 3.92968C7.56664 6.55553 4.33461 10.3314 2.31534 14.803C0.296066 19.2745 -0.424408 24.2513 0.240614 29.1343C0.905636 34.0173 2.92782 38.5985 6.06383 42.3267C9.19983 46.0549 13.316 48.7712 17.9171 50.1488C25.4498 52.4469 31.9076 57.4965 36.0769 64.3487L46.2142 80.7805C50.7454 74.9022 56.5756 70.2225 63.2195 67.131ZM24.8812 38.3903C19.5819 38.3903 15.2769 32.67 15.2769 25.6011C15.2769 18.5322 19.5819 12.8119 24.8812 12.8119C30.1806 12.8119 34.4856 18.5322 34.4856 25.6011C34.4856 32.67 30.1806 38.3903 24.8812 38.3903Z" stroke="#16A34A"/>
<path d="M59.4577 84.0431C54.5458 88.955 51.2007 95.2131 49.8456 102.026C48.4904 108.839 49.1859 115.901 51.8442 122.319C54.5025 128.736 59.0042 134.222 64.7799 138.081C70.5557 141.94 77.3462 144 84.2926 144C91.2391 144 98.0295 141.94 103.805 138.081C109.581 134.222 114.083 128.736 116.741 122.319C119.399 115.901 120.095 108.839 118.74 102.026C117.385 95.2131 114.039 88.955 109.128 84.0431C105.866 80.7817 101.994 78.1946 97.7332 76.4296C93.472 74.6646 88.9049 73.7561 84.2926 73.7561C79.6803 73.7561 75.1132 74.6646 70.852 76.4296C66.5909 78.1946 62.719 80.7817 59.4577 84.0431ZM77.0835 118.37C80.6679 124.707 90.4738 124.593 93.9574 118.239C94.2739 117.661 94.5451 117.037 94.8159 116.414C95.7621 114.235 96.7034 112.068 99.5546 111.957C100.196 111.917 100.838 112.029 101.429 112.284C102.019 112.539 102.54 112.93 102.951 113.424C103.973 114.739 104.445 116.399 104.268 118.055C103.623 125.324 96.6137 130.612 89.8295 131.686C82.1305 132.905 73.8547 130.85 69.0635 124.394C64.3448 118.036 63.2742 109.209 65.1919 101.638C66.3326 97.0836 68.9664 93.0425 72.6728 90.1601C76.3792 87.2778 80.9445 85.7204 85.6398 85.7366C92.8148 85.7027 100.74 89.2 103.621 96.1857C104.904 99.2978 104.509 103.626 100.552 104.409C97.4413 105.025 95.9421 102.617 94.5338 100.356C94.1912 99.8054 93.854 99.2639 93.5002 98.7766C92.6192 97.5288 91.4543 96.5081 90.1015 95.7988C88.7487 95.0895 87.2467 94.7117 85.7193 94.6967C84.1919 94.6817 82.6827 95.0298 81.3163 95.7125C79.9498 96.3951 78.7651 97.3926 77.8597 98.6229C74.1579 103.752 74.0111 112.939 77.0835 118.37Z" fill="#16A34A"/>
<path d="M59.4577 84.0431C54.5458 88.955 51.2007 95.2131 49.8456 102.026C48.4904 108.839 49.1859 115.901 51.8442 122.319C54.5025 128.736 59.0042 134.222 64.7799 138.081C70.5557 141.94 77.3462 144 84.2926 144C91.2391 144 98.0295 141.94 103.805 138.081C109.581 134.222 114.083 128.736 116.741 122.319C119.399 115.901 120.095 108.839 118.74 102.026C117.385 95.2131 114.039 88.955 109.128 84.0431C105.866 80.7817 101.994 78.1946 97.7332 76.4296C93.472 74.6646 88.9049 73.7561 84.2926 73.7561C79.6803 73.7561 75.1132 74.6646 70.852 76.4296C66.5909 78.1946 62.719 80.7817 59.4577 84.0431ZM77.0835 118.37C80.6679 124.707 90.4738 124.593 93.9574 118.239C94.2739 117.661 94.5451 117.037 94.8159 116.414C95.7621 114.235 96.7034 112.068 99.5546 111.957C100.196 111.917 100.838 112.029 101.429 112.284C102.019 112.539 102.54 112.93 102.951 113.424C103.973 114.739 104.445 116.399 104.268 118.055C103.623 125.324 96.6137 130.612 89.8295 131.686C82.1305 132.905 73.8547 130.85 69.0635 124.394C64.3448 118.036 63.2742 109.209 65.1919 101.638C66.3326 97.0836 68.9664 93.0425 72.6728 90.1601C76.3792 87.2778 80.9445 85.7204 85.6398 85.7366C92.8148 85.7027 100.74 89.2 103.621 96.1857C104.904 99.2978 104.509 103.626 100.552 104.409C97.4413 105.025 95.9421 102.617 94.5338 100.356C94.1912 99.8054 93.854 99.2639 93.5002 98.7766C92.6192 97.5288 91.4543 96.5081 90.1015 95.7988C88.7487 95.0895 87.2467 94.7117 85.7193 94.6967C84.1919 94.6817 82.6827 95.0298 81.3163 95.7125C79.9498 96.3951 78.7651 97.3926 77.8597 98.6229C74.1579 103.752 74.0111 112.939 77.0835 118.37Z" stroke="#16A34A"/>
</svg>
