<svg xmlns="http://www.w3.org/2000/svg" width="177" height="24" viewBox="0 0 177 24" fill="none">
  <path
    d="M14.6197 17.2253C14.6197 21.72 11.8206 24.0078 7.54118 24.0078C5.22653 24.0078 3.07337 23.3618 1.21626 22.0699L2.15827 20.4551C3.74623 21.6124 5.52259 22.2314 7.51427 22.2314C10.5825 22.2314 12.5742 20.5358 12.5742 17.2791V15.6374C11.363 17.2522 9.66743 18.571 7.11055 18.571C3.77314 18.571 0.570312 16.0949 0.570312 12.0308C0.570312 7.93979 3.80006 5.43674 7.11055 5.43674C9.72126 5.43674 11.4169 6.72864 12.5473 8.23585V5.7328H14.6197V17.2253ZM12.628 12.0039C12.628 9.12403 10.1519 7.26693 7.51427 7.26693C4.87664 7.26693 2.69656 9.0702 2.69656 11.977C2.69656 14.8299 4.93047 16.7408 7.51427 16.7408C10.1519 16.7408 12.628 14.8568 12.628 12.0039Z"
    fill="white"
  />
  <path d="M20.0312 19.6476H17.9588V0H20.0312V19.6476Z" fill="white" />
  <path
    d="M37.0061 12.6768C37.0061 16.6332 33.9109 19.9706 29.7122 19.9706C25.5405 19.9706 22.4991 16.687 22.4991 12.7306C22.4991 8.77414 25.5674 5.43674 29.7661 5.43674C33.9378 5.43674 37.0061 8.72031 37.0061 12.6768ZM34.8798 12.7306C34.8798 9.68924 32.6459 7.26693 29.7122 7.26693C26.6978 7.26693 24.6254 9.66232 24.6254 12.6768C24.6254 15.6912 26.8324 18.1135 29.7661 18.1135C32.7805 18.1135 34.8798 15.7181 34.8798 12.7306Z"
    fill="white"
  />
  <path
    d="M53.3293 12.6768C53.3293 17.2522 50.0458 19.9437 46.6814 19.9437C44.0977 19.9437 42.4289 18.5441 41.3524 16.9831V19.6476H39.2799V0H41.3524V8.53191C42.4828 6.86321 44.1246 5.43674 46.6814 5.43674C50.0189 5.43674 53.3293 8.07436 53.3293 12.6768ZM51.2031 12.7037C51.2031 9.39318 48.9423 7.29384 46.3046 7.29384C43.7208 7.29384 41.2716 9.44701 41.2716 12.6768C41.2716 15.9334 43.7208 18.0866 46.3046 18.0866C48.9961 18.0866 51.2031 16.0949 51.2031 12.7037Z"
    fill="white"
  />
  <path
    d="M60.7056 7.37459C59.0638 7.37459 57.7719 7.80522 56.48 8.39734L55.861 6.70172C57.3951 6.00194 58.9023 5.5444 60.9209 5.5444C64.7159 5.5444 66.8421 7.48224 66.8421 11.1426V19.6476H64.8504V17.5483C63.8815 18.8133 62.2667 19.9437 59.8174 19.9437C57.2336 19.9437 54.6229 18.4903 54.6229 15.5835C54.6229 12.6229 57.0452 11.0619 60.571 11.0619C62.3474 11.0619 63.6124 11.3041 64.8504 11.654V11.1695C64.8504 8.66648 63.3163 7.37459 60.7056 7.37459ZM60.7864 12.596C58.1756 12.596 56.7223 13.7264 56.7223 15.5028C56.7223 17.2791 58.3371 18.3019 60.2211 18.3019C62.778 18.3019 64.8774 16.7408 64.8774 14.5339V13.1881C63.8546 12.8921 62.482 12.596 60.7864 12.596Z"
    fill="white"
  />
  <path d="M72.0394 19.6476H69.9669V0H72.0394V19.6476Z" fill="white" />
  <path
    d="M91.835 15.4489C91.835 18.4365 89.5204 19.9168 86.5598 19.9168C84.5412 19.9168 82.3073 19.1901 80.5309 17.7905L81.9843 15.5835C83.5184 16.7408 85.1871 17.333 86.6405 17.333C88.0401 17.333 88.8475 16.7408 88.8475 15.7988V15.745C88.8475 14.6415 87.3403 14.2647 85.6716 13.7533C83.5723 13.1612 81.2307 12.2999 81.2307 9.58158V9.52775C81.2307 6.83629 83.4646 5.19451 86.2906 5.19451C88.067 5.19451 90.0048 5.81354 91.512 6.80938L90.2201 9.12403C88.8475 8.28968 87.3941 7.7783 86.2099 7.7783C84.9449 7.7783 84.2182 8.37042 84.2182 9.20477V9.2586C84.2182 10.2814 85.7523 10.712 87.421 11.2503C89.4934 11.8962 91.835 12.8382 91.835 15.3951V15.4489Z"
    fill="white"
  />
  <path
    d="M108.038 12.5422C108.038 16.6063 104.808 19.9706 100.421 19.9706C96.0875 19.9706 92.8847 16.6601 92.8847 12.596C92.8847 8.505 96.1144 5.14068 100.475 5.14068C104.835 5.14068 108.038 8.45117 108.038 12.5422ZM104.781 12.596C104.781 10.066 102.978 7.99362 100.421 7.99362C97.81 7.99362 96.1413 10.0391 96.1413 12.5422C96.1413 15.0721 97.9446 17.1446 100.475 17.1446C103.112 17.1446 104.781 15.0991 104.781 12.596Z"
    fill="white"
  />
  <path d="M113.319 19.6476H110.062V0H113.319V19.6476Z" fill="white" />
  <path
    d="M125.434 13.4573V5.43674H128.691V19.6476H125.434V17.4406C124.519 18.7864 123.2 19.9437 120.993 19.9437C117.79 19.9437 115.933 17.7905 115.933 14.48V5.43674H119.19V13.5111C119.19 15.7181 120.293 16.9831 122.231 16.9831C124.115 16.9831 125.434 15.6643 125.434 13.4573Z"
    fill="white"
  />
  <path
    d="M135.234 8.23585V15.2067C135.234 16.4717 135.88 16.9831 136.984 16.9831C137.71 16.9831 138.356 16.8216 139.002 16.4986V19.1632C138.195 19.6207 137.28 19.8898 136.068 19.8898C133.673 19.8898 131.977 18.8402 131.977 15.7181V8.23585H130.174V5.43674H131.977V1.53413H135.234V5.43674H139.056V8.23585H135.234Z"
    fill="white"
  />
  <path
    d="M144.416 3.25666H140.917V0.161487H144.416V3.25666ZM144.308 19.6476H141.052V5.43674H144.308V19.6476Z"
    fill="white"
  />
  <path
    d="M161.457 12.5422C161.457 16.6063 158.227 19.9706 153.84 19.9706C149.507 19.9706 146.304 16.6601 146.304 12.596C146.304 8.505 149.533 5.14068 153.894 5.14068C158.254 5.14068 161.457 8.45117 161.457 12.5422ZM158.2 12.596C158.2 10.066 156.397 7.99362 153.84 7.99362C151.229 7.99362 149.56 10.0391 149.56 12.5422C149.56 15.0721 151.364 17.1446 153.894 17.1446C156.531 17.1446 158.2 15.0991 158.2 12.596Z"
    fill="white"
  />
  <path
    d="M166.55 11.6271V19.6476H163.293V5.43674H166.55V7.64373C167.465 6.298 168.783 5.14068 170.99 5.14068C174.193 5.14068 176.05 7.29384 176.05 10.6043V19.6476H172.794V11.5733C172.794 9.36626 171.69 8.10128 169.752 8.10128C167.868 8.10128 166.55 9.42009 166.55 11.6271Z"
    fill="white"
  />
</svg>